<svg xmlns="http://www.w3.org/2000/svg" xmlns:xlink="http://www.w3.org/1999/xlink" viewBox="0 0 473.03 692.89"><defs><style>.cls-1{fill:url(#radial-gradient);}.cls-2{fill:#00aee3;}.cls-3{fill:url(#radial-gradient-2);}.cls-4{fill:url(#radial-gradient-3);}.cls-5{fill:url(#radial-gradient-4);}.cls-6{fill:url(#radial-gradient-5);}.cls-7{fill:url(#linear-gradient);}.cls-8{fill:#7f8083;}.cls-9{fill:url(#radial-gradient-6);}.cls-10{fill:url(#radial-gradient-7);}.cls-11{fill:url(#linear-gradient-2);}.cls-12{fill:url(#linear-gradient-3);}.cls-13{fill:url(#linear-gradient-4);}.cls-14{fill:url(#linear-gradient-5);}.cls-15{fill:url(#radial-gradient-8);}</style><radialGradient id="radial-gradient" cx="-38.25" cy="425.72" r="83.59" gradientTransform="translate(130.97 -28.24) scale(1.11 1.05)" gradientUnits="userSpaceOnUse"><stop offset="0" stop-color="#e7ecec"/><stop offset="0.35" stop-color="#d4dadc"/><stop offset="1" stop-color="#a7b0b6"/></radialGradient><radialGradient id="radial-gradient-2" cx="322.43" cy="617.44" r="92.42" gradientUnits="userSpaceOnUse"><stop offset="0" stop-color="#fff"/><stop offset="0.21" stop-color="#eceeef"/><stop offset="0.62" stop-color="#bcc1c4"/><stop offset="0.83" stop-color="#a1a9ad"/><stop offset="0.86" stop-color="#a7aeb2"/><stop offset="0.91" stop-color="#b7bdc0"/><stop offset="0.97" stop-color="#d3d6d7"/><stop offset="1" stop-color="#e3e5e5"/></radialGradient><radialGradient id="radial-gradient-3" cx="173.65" cy="617.78" r="87.34" xlink:href="#radial-gradient-2"/><radialGradient id="radial-gradient-4" cx="264.75" cy="444.81" r="207.6" xlink:href="#radial-gradient-2"/><radialGradient id="radial-gradient-5" cx="130.23" cy="-167.56" r="222.92" gradientTransform="translate(72.45 319.61) rotate(15.49)" gradientUnits="userSpaceOnUse"><stop offset="0" stop-color="#fff"/><stop offset="0.5" stop-color="#fdfdfd"/><stop offset="0.68" stop-color="#f6f7f7"/><stop offset="0.81" stop-color="#ebeded"/><stop offset="0.91" stop-color="#dadede"/><stop offset="1" stop-color="#c5cbcc"/></radialGradient><linearGradient id="linear-gradient" x1="308.11" y1="-255.42" x2="-27.35" y2="-106.83" gradientTransform="translate(72.45 319.61) rotate(15.49)" gradientUnits="userSpaceOnUse"><stop offset="0" stop-color="#2b294a"/><stop offset="0.09" stop-color="#2a2848"/><stop offset="0.12" stop-color="#262441"/><stop offset="0.14" stop-color="#1f1e36"/><stop offset="0.16" stop-color="#151425"/><stop offset="0.17" stop-color="#09080f"/><stop offset="0.18"/><stop offset="0.3" stop-color="#000102"/><stop offset="0.36" stop-color="#000609"/><stop offset="0.4" stop-color="#000f16"/><stop offset="0.44" stop-color="#001a28"/><stop offset="0.47" stop-color="#00283d"/><stop offset="0.55" stop-color="#032a3f"/><stop offset="0.62" stop-color="#0c3044"/><stop offset="0.68" stop-color="#1d394d"/><stop offset="0.73" stop-color="#334759"/><stop offset="0.78" stop-color="#505869"/><stop offset="0.79" stop-color="#565c6c"/><stop offset="0.83" stop-color="#4f5465"/><stop offset="0.9" stop-color="#3b3f51"/><stop offset="0.99" stop-color="#1c1b32"/><stop offset="1" stop-color="#16152c"/></linearGradient><radialGradient id="radial-gradient-6" cx="9.87" cy="-7.94" r="21.49" gradientTransform="matrix(1, -0.06, 0.07, 1.23, 74.82, 324.93)" gradientUnits="userSpaceOnUse"><stop offset="0" stop-color="#00aee3"/><stop offset="0.37" stop-color="#02afe3"/><stop offset="0.51" stop-color="#09b1e4"/><stop offset="0.6" stop-color="#14b5e5"/><stop offset="0.68" stop-color="#25bae7"/><stop offset="0.75" stop-color="#3bc1ea"/><stop offset="0.8" stop-color="#57caed"/><stop offset="0.86" stop-color="#77d4f0"/><stop offset="0.91" stop-color="#9de0f4"/><stop offset="0.95" stop-color="#c8eef9"/><stop offset="0.99" stop-color="#f6fcfe"/><stop offset="1" stop-color="#fff"/></radialGradient><radialGradient id="radial-gradient-7" cx="-2483.41" cy="744.49" fx="-2500.0943100836366" fy="730.9546255119575" r="21.49" gradientTransform="matrix(0.06, -1, -1.23, -0.07, 1441.16, -2112.51)" xlink:href="#radial-gradient-6"/><linearGradient id="linear-gradient-2" x1="157.82" y1="157.9" x2="153.61" y2="179.46" gradientUnits="userSpaceOnUse"><stop offset="0" stop-color="#dfdfde"/><stop offset="0.02" stop-color="#dbdedd"/><stop offset="0.18" stop-color="#bcd8d2"/><stop offset="0.35" stop-color="#a5d4ca"/><stop offset="0.54" stop-color="#94d1c4"/><stop offset="0.73" stop-color="#8acfc1"/><stop offset="0.99" stop-color="#87cec0"/></linearGradient><linearGradient id="linear-gradient-3" x1="339.12" y1="157.9" x2="334.92" y2="179.46" xlink:href="#linear-gradient-2"/><linearGradient id="linear-gradient-4" x1="201.53" y1="-297.65" x2="187.97" y2="-228.17" gradientTransform="matrix(0.95, 0.3, -0.3, 0.95, 72.51, 362.86)" gradientUnits="userSpaceOnUse"><stop offset="0" stop-color="#dfdfde"/><stop offset="0.01" stop-color="#d8dede"/><stop offset="0.11" stop-color="#a6d3df"/><stop offset="0.22" stop-color="#7ac9e0"/><stop offset="0.33" stop-color="#54c0e1"/><stop offset="0.44" stop-color="#36bae2"/><stop offset="0.55" stop-color="#1eb5e2"/><stop offset="0.68" stop-color="#0db1e3"/><stop offset="0.81" stop-color="#03afe3"/><stop offset="0.99" stop-color="#00aee3"/></linearGradient><linearGradient id="linear-gradient-5" x1="29.97" y1="-238.68" x2="16.41" y2="-169.2" xlink:href="#linear-gradient-4"/><radialGradient id="radial-gradient-8" cx="386.47" cy="319.98" r="119.49" gradientTransform="matrix(1, 0, 0, 1, 0, 0)" xlink:href="#radial-gradient"/></defs><g id="Layer_2" data-name="Layer 2"><g id="Layer_1-2" data-name="Layer 1"><g id="Hands"><g id="Right"><path class="cls-1" d="M130.59,383.14S53.67,427.42,34.65,472c0,0-20.15,54.48,40.59,39.18l14.48-5.63,85.72-51.79Z"/><path class="cls-2" d="M59.63,437.21s10.08,44.82,37,54.21l22.14-17S90.14,448.21,82.48,417C82.48,417,73.18,423.24,59.63,437.21Z"/></g></g><g id="Legs"><path id="Left" class="cls-3" d="M244.37,602.28S233.44,670.66,257,682.34c0,0,53.8,20.29,88.27,4.59,0,0,27.57-19.34,30.83-71.42,0,0,5.17-41.93,3.44-45.57Z"/><path id="Right-2" data-name="Right" class="cls-4" d="M99.73,573.52s-10.09,72.5,1.59,86.29c0,0,26.81,33.5,77.55,27.57,0,0,32.74-1.15,42.7-46.53l7.66-30.44L100.56,573.52Z"/></g><path id="hair" class="cls-2" d="M151,23.6s71.94-41.45,163.55-3.85c0,0-11.3,43.79-62.56,31.84l-81.53-.21-31.34-15Z"/><path id="Body" class="cls-5" d="M123.89,391.11S61.51,474.55,80.51,545.6c0,0,14,66.92,138.8,64.44,0,0,104.09,5.78,145-25.2,0,0,45.43-26.44,31.8-91.29,0,0-14-62.37-38.21-86.33,0,0-52.46-66.09-60.72-66.71C297.17,340.51,123.47,382.85,123.89,391.11Z"/><path id="Background_face" data-name="Background face" class="cls-6" d="M63.78,46.2s24-40.77,49.72-43.71c0,0,25-5.93,37.47,21.11,0,0-1.26,31.31,54.62,22.29,0,0,61.53-2.16,67.87-.66,0,0,32.73,2.84,42.53-29.68,0,0,27.3-37.34,74.08,3.7,0,0,64.21,63.23,74.8,158.35,0,0,20,107.26-50.44,164.85,0,0-76.88,42.27-112.59,43.5,0,0-156.78,16.57-221.07-16.74,0,0-76.31-24.33-72.22-138C8.55,231.17,1.18,125.82,63.78,46.2Z"/><g id="Face"><g id="Ears"><path class="cls-2" d="M11.82,167.22S-4.63,207.34,1.28,243.35c0,0,2.43,21.53,13,38.17C14.28,281.52,3.7,215.34,11.82,167.22Z"/><path class="cls-2" d="M465.43,174.3s9.74,66.91-10.93,105.26c0,0,30.56-29.66,13.19-104.64Z"/></g><path class="cls-7" d="M73.35,120.65,88.12,99.56l12.55-6.18,13.06-2.85,13.09-2.22L138,88.13l15.39,3.47L165,94.75l8.55,3.15,2.94,1.19s41.56,20.43,69.33,15.7c0,0,19.69-2.91,28.65-6.12l19.7-9.85,11.3-4.74,14.2-4.87,15.92-2.48L347,86.14l13,1.8,8.18,2.73,9,3.91,8.32,5.35,5.85,5.17s5.95,6.34,7.83,9.85c0,0,23,36.64,16.06,86.64,0,0-2.71,53.6-31.25,70.17L378.09,274l-13.33,4.58-8.18,1.58-13.94.11-11-1.27-13-3.6-14-2.09L296,275.53l-13.38,5L270.38,288l-10.28,5.56-19.85,4.7-16.14-1-16.86-3.67-19.4-11.27-13.53-10-13.76-2.42-16.19,3.46-16.89,6.45-10.37,2.76-15.49-2.64L84.86,272,73.42,259.75l-7.53-17.06L59,219.32l-2.91-25.84,1.15-23.26L63,141.75,71,125Z"/><path class="cls-8" d="M176.3,99s-66-32-97.4,10.16c0,0-25.78,30-24.67,89.07,0,0,3,69.44,40.24,81.35a35.67,35.67,0,0,0,32.34,1.61s35.15-17.88,50.73-3.83c0,0,22.5,17.76,34.35,19.45,0,0,32.08,9.69,54.58-5.53,0,0,34.83-25.32,56.08-13.08,0,0,44.19,14,72-15.22,0,0-29,25.44-67.26,13.25,0,0-23.74-10.75-43.88,3.14,0,0-20.59,13.37-24,13,0,0-22.06,7.2-37.33,3.16,0,0-17.56-1.88-37.7-18.49a35.51,35.51,0,0,0-31.08-7.22s-18.47,5.36-23.46,8.3a39,39,0,0,1-35.05-2.76s-17.31-7.14-26-29.29c0,0-14.56-33.5-10.25-62.71,0,0,1.33-70.76,44-89.14C102.51,94.29,125.3,80.14,176.3,99Z"/><path class="cls-8" d="M195.42,106.52s48,25.49,109.93-14.31c0,0,61-24.55,92.68,21.17,0,0-24.73-43.41-90.9-19C307.13,94.36,258.7,131,195.42,106.52Z"/><ellipse class="cls-9" cx="84.07" cy="314.6" rx="17.7" ry="24.7" transform="translate(-192.05 141.99) rotate(-43.03)"/><ellipse class="cls-10" cx="379.48" cy="311.68" rx="24.7" ry="17.7" transform="translate(-104.07 397.25) rotate(-49.43)"/><path id="Right_eye_closed" data-name="Right eye closed" class="cls-11" d="M113.08,174.09s9.57-16,41.54-17c0,0,25.5-1.07,41.62,17C196.24,174.09,161.81,147.78,113.08,174.09Z"/><path id="Left_eye_closed" data-name="Left eye closed" class="cls-12" d="M294.38,174.09s9.57-16,41.54-17c0,0,25.5-1.07,41.62,17C377.54,174.09,343.11,147.78,294.38,174.09Z"/><g id="Eyes"><circle id="Left-2" data-name="Left" class="cls-13" cx="335.96" cy="171.63" r="41.61"/><circle id="Right-3" data-name="Right" class="cls-14" cx="154.62" cy="176.73" r="41.61"/></g></g><path class="cls-15" d="M441.7,364.74c-3.17-31.55-22.94-52-22.94-52C355,281.72,356,339.65,356,339.65A47.69,47.69,0,0,1,361.52,354C379.94,372.45,435.31,365.61,441.7,364.74Z"/><path class="cls-15" d="M351.24,383.72a3,3,0,0,0-.25.25,56.1,56.1,0,0,1-8.17,6.29c9.17,11.08,16,19.74,16,19.74,12.35,12.24,22.05,34.5,28.59,53.35,18.9-11.33,28.26-24.09,28.26-24.09a129.16,129.16,0,0,0,17.33-27C393.76,420.59,356.19,388.19,351.24,383.72Z"/><path class="cls-2" d="M441.63,382.4a84.86,84.86,0,0,0,.07-17.66c-6.39.87-61.76,7.71-80.18-10.71a29.79,29.79,0,0,1-2.7,19.8,24.82,24.82,0,0,1-1.71,2.91,39.49,39.49,0,0,1-5.87,7c4.95,4.47,42.52,36.87,81.8,28.55,1.26-2.69,2.39-5.34,3.36-8A145.42,145.42,0,0,0,441.63,382.4Z"/></g></g></svg>