<svg xmlns="http://www.w3.org/2000/svg" viewBox="0 0 93.45 93.45"><defs><style>.cls-1{fill:#353535;}.cls-2{fill:#fff8f8;}.cls-3{fill:#231f20;}.cls-4{fill:#00ade3;}</style></defs><title>Logo</title><g id="Layer_2" data-name="Layer 2"><g id="Layer_1-2" data-name="Layer 1"><circle class="cls-1" cx="46.72" cy="46.72" r="46.72"/><polyline class="cls-2" points="28.41 67.02 28.41 39.16 24.92 39.16 24.92 59.29"/><line class="cls-3" x1="66.07" y1="67.16" x2="66.07" y2="67.16"/><polyline class="cls-2" points="69.44 59.33 69.44 39.56 66.07 39.56 66.07 67.16"/><line class="cls-3" x1="69.44" y1="59.37" x2="69.44" y2="59.33"/><path class="cls-3" d="M27.63,32.3c1,.07,2,.13,2.94.17l-1.73-.22Z"/><path class="cls-3" d="M69.32,32.12l-1.67.19A4.1,4.1,0,0,0,69.32,32.12Z"/><path class="cls-3" d="M27.63,32.3c-.9-.07-1.8-.14-2.7-.19h0v0h0A8.84,8.84,0,0,0,27.63,32.3Z"/><path class="cls-3" d="M69.38,32.1l-.06,0,.14,0Z"/><path class="cls-4" d="M80.7,33.94c-.3-1.42-.88-1.93-2.36-1.87-2.88.12-5.77,0-8.88,0l-.14,0a4.1,4.1,0,0,1-1.67.19c-1.8.19-3.61.33-5.42.43a34.21,34.21,0,0,0-14.94,6.63,34.77,34.77,0,0,0-16.72-6.9c-1,0-1.95-.1-2.94-.17a8.84,8.84,0,0,1-2.71-.15H14.36C10.6,44.09,17.1,60.45,28.41,67.4l-3.49-7.74C19.33,54.29,15.78,43.84,17.08,37a2.42,2.42,0,0,1,1.8-1.37c2.44-.16,4.89-.07,7.34,0,8,.06,15.11,2.58,20.9,8.17,5,4.81,8.5,10.51,8.52,17.73a8,8,0,0,1-6.91,8.1c-6.64,1-11.42-4.39-9.6-11.37,1-3.92,3-7.59,4.69-11.68l-2.19-1.77c-3.62,5-6.2,10.16-6.37,16.22A12,12,0,0,0,47,73.32c6.53.13,12.23-5,12.06-11.68a27.91,27.91,0,0,0-2.39-10.19c-1.57-3.56-4.09-6.7-6.28-10.16,7.86-6.16,17.21-6.1,26.92-5.56,1,9.13-1.49,17-7.91,23.64h0l-3.37,7.79c.32,0,.51,0,.63,0C76.75,60.87,83.16,45.6,80.7,33.94Z"/><path class="cls-2" d="M28.84,32.25h-.09V21.37a32.23,32.23,0,0,1,18.48,6.72c7.64-4.86,12.41-6.58,18.54-6.66v10.8l-.23,0c-1.12.11-2.22.28-3.31.48,1.81-.1,3.62-.24,5.42-.43a14.65,14.65,0,0,0-2-.06,14.65,14.65,0,0,1,2,.06l1.67-.19.06,0V17.7c-1-.05-1.71-.15-2.45-.13a35.52,35.52,0,0,0-17.81,5,3.27,3.27,0,0,1-3.84,0,47.33,47.33,0,0,0-7.62-3.34A31.68,31.68,0,0,0,24.93,17.7V32l0,0,0,0v.13c.9,0,1.8.12,2.7.19Z"/></g></g></svg>